<svg width="342" height="219" viewBox="0 0 342 219" fill="none" xmlns="http://www.w3.org/2000/svg">
<g clip-path="url(#clip0_4330_249)">
<rect width="341.746" height="218.493" rx="6.72287" fill="url(#paint0_linear_4330_249)"/>
<path opacity="0.4" d="M68.6237 102.525C43.4434 102.42 19.2484 112.305 1.34368 130.013C-16.5611 147.722 -26.7144 171.808 -26.8915 196.992C-26.9097 209.415 -24.4472 221.716 -19.6484 233.174C-14.8496 244.633 -7.81135 255.017 1.05373 263.718C4.80822 267.408 9.86132 269.475 15.1249 269.475C20.3886 269.475 25.4417 267.408 29.1962 263.718C31.0436 261.9 32.5108 259.732 33.5123 257.341C34.5139 254.95 35.0294 252.383 35.0294 249.791C35.0294 247.198 34.5139 244.632 33.5123 242.241C32.5108 239.85 31.0436 237.682 29.1962 235.863C24.0304 230.782 19.9276 224.722 17.1271 218.038C14.3265 211.355 12.8844 204.18 12.8844 196.933C12.8844 189.686 14.3265 182.512 17.1271 175.828C19.9276 169.144 24.0304 163.085 29.1962 158.003C39.6967 147.67 53.8369 141.879 68.5674 141.879C83.2978 141.879 97.4381 147.67 107.939 158.003C113.104 163.085 117.207 169.144 120.008 175.828C122.808 182.512 124.25 189.686 124.25 196.933C124.25 204.18 122.808 211.355 120.008 218.038C117.207 224.722 113.104 230.782 107.939 235.863C106.091 237.681 104.624 239.849 103.622 242.239C102.621 244.63 102.105 247.196 102.105 249.788C102.105 252.38 102.621 254.946 103.622 257.336C104.624 259.727 106.091 261.894 107.939 263.712C111.693 267.402 116.746 269.469 122.01 269.469C127.273 269.469 132.327 267.402 136.081 263.712C144.968 255.022 152.029 244.644 156.849 233.186C161.669 221.728 164.151 209.423 164.15 196.992C163.973 171.806 153.818 147.718 135.911 130.009C118.003 112.301 93.806 102.417 68.6237 102.525Z" fill="url(#paint1_linear_4330_249)"/>
<path d="M316.519 -60.054C295.02 -60.1523 274.36 -51.7286 259.072 -36.631C243.783 -21.5334 235.114 -0.994705 234.966 20.4795C234.966 42.0846 243.558 62.8048 258.852 78.0819C274.146 93.359 294.89 101.942 316.519 101.942C338.148 101.942 358.891 93.359 374.185 78.0819C389.479 62.8048 398.072 42.0846 398.072 20.4795C397.924 -0.994705 389.254 -21.5334 373.966 -36.631C358.677 -51.7286 338.017 -60.1523 316.519 -60.054ZM316.519 63.0136C308.117 62.9182 299.931 60.3424 292.991 55.6102C286.052 50.8781 280.669 44.2012 277.52 36.4199C274.371 28.6385 273.596 20.1006 275.294 11.8807C276.992 3.66078 281.086 -3.87374 287.062 -9.77452C293.037 -15.6753 300.626 -19.6786 308.874 -21.2806C317.122 -22.8826 325.66 -22.0117 333.413 -18.7774C341.167 -15.5431 347.789 -10.0901 352.447 -3.10467C357.105 3.88078 359.59 12.0864 359.59 20.4795C359.558 26.0973 358.418 31.6537 356.236 36.8316C354.054 42.0095 350.873 46.7074 346.873 50.6571C342.874 54.6067 338.135 57.7308 332.926 59.851C327.718 61.9711 322.143 63.0458 316.519 63.0136Z" fill="url(#paint2_linear_4330_249)"/>
<g opacity="0.6">
<path d="M93.01 111.71C94.1552 110.564 94.7986 109.011 94.7986 107.391C94.7986 105.772 94.1552 104.219 93.01 103.073" stroke="white" stroke-width="2.8012" stroke-linecap="round" stroke-linejoin="round"/>
<path d="M97.7087 114.575C99.3353 112.534 100.221 110 100.22 107.39C100.22 104.78 99.3339 102.247 97.7068 100.206" stroke="white" stroke-width="2.8012" stroke-linecap="round" stroke-linejoin="round"/>
<path d="M101.851 117.401C104.03 114.536 105.215 111.039 105.225 107.44C105.236 103.84 104.071 100.336 101.909 97.4587" stroke="white" stroke-width="2.8012" stroke-linecap="round" stroke-linejoin="round"/>
<path d="M106.477 94.5173C109.273 98.3807 110.736 103.05 110.643 107.818C110.55 112.587 108.908 117.195 105.963 120.947" stroke="white" stroke-width="2.8012" stroke-linecap="round" stroke-linejoin="round"/>
</g>
<rect x="36.6955" y="89.3861" width="47.4803" height="34.4469" rx="7.00299" fill="url(#paint3_linear_4330_249)" stroke="url(#paint4_linear_4330_249)" stroke-width="0.560239"/>
<mask id="mask0_4330_249" style="mask-type:alpha" maskUnits="userSpaceOnUse" x="36" y="89" width="48" height="35">
<rect x="37.2557" y="89.9464" width="46.3598" height="33.3264" rx="6.44275" fill="#DCD59E" stroke="black" stroke-width="0.560239"/>
</mask>
<g mask="url(#mask0_4330_249)">
<path opacity="0.5" fill-rule="evenodd" clip-rule="evenodd" d="M61.5407 90.7763C61.1304 89.9408 59.9393 89.9408 59.5291 90.7763L55.313 99.3631C55.313 99.3631 57.4017 105.671 55.313 112.866L59.5098 122.377C59.9029 123.268 61.1669 123.268 61.56 122.377L65.7568 112.866C65.7568 112.866 63.668 108.956 65.7568 99.3631L61.5407 90.7763Z" stroke="#BFB985" stroke-width="0.728311" stroke-linejoin="bevel"/>
<path opacity="0.5" d="M36.5142 99.3172H55.1805" stroke="#BFB985" stroke-width="0.728311" stroke-linejoin="bevel"/>
<path opacity="0.5" d="M65.3135 99.3172H84.5132" stroke="#BFB985" stroke-width="0.728311" stroke-linejoin="bevel"/>
<path opacity="0.5" d="M36.5142 112.762H55.1805" stroke="#BFB985" stroke-width="0.728311" stroke-linejoin="bevel"/>
<path opacity="0.5" d="M65.3135 112.762H84.5132" stroke="#BFB985" stroke-width="0.728311" stroke-linejoin="bevel"/>
</g>
<path fill-rule="evenodd" clip-rule="evenodd" d="M68.7476 26.347C69.006 26.0814 69.209 25.767 69.3447 25.4221C69.4804 25.0773 69.5462 24.7089 69.5381 24.3384C69.53 23.9678 69.4482 23.6026 69.2976 23.264C69.1469 22.9254 68.9304 22.6202 68.6606 22.3661C66.954 20.7484 64.813 19.6631 62.4994 19.2429C60.1857 18.8226 57.7998 19.0857 55.6333 20C53.4669 20.9142 51.6138 22.44 50.3007 24.3907C48.9876 26.3414 48.2714 28.6325 48.2397 30.9838C48.2714 33.3351 48.9876 35.6261 50.3007 37.5768C51.6138 39.5275 53.4669 41.0533 55.6333 41.9676C57.7998 42.8818 60.1857 43.1449 62.4994 42.7247C64.813 42.3045 66.954 41.2192 68.6606 39.6014C68.9304 39.3474 69.1469 39.0421 69.2976 38.7035C69.4482 38.3649 69.53 37.9997 69.5381 37.6292C69.5462 37.2587 69.4804 36.8903 69.3447 36.5454C69.209 36.2006 69.006 35.8862 68.7476 35.6206C68.222 35.0815 67.5056 34.7705 66.7529 34.7545C66.0001 34.7386 65.2713 35.019 64.7233 35.5353C63.5076 36.6824 61.893 37.311 60.2217 37.2877C58.5505 37.2644 56.954 36.5911 55.7708 35.4105C55.1886 34.8297 54.7267 34.1397 54.4115 33.3801C54.0963 32.6205 53.9341 31.8062 53.9341 30.9838C53.9341 30.1614 54.0963 29.3471 54.4115 28.5875C54.7267 27.8279 55.1886 27.1379 55.7708 26.5571C56.954 25.3765 58.5505 24.7032 60.2217 24.6799C61.893 24.6566 63.5076 25.2852 64.7233 26.4323C65.2713 26.9487 66.0002 27.2291 66.753 27.213C67.5058 27.1968 68.2222 26.8855 68.7476 26.3462V26.347ZM21.9657 22.9798C24.5262 20.448 27.9862 19.0347 31.587 19.05C35.1879 19.0347 38.6479 20.448 41.2084 22.9798C43.7689 25.5117 45.221 28.9555 45.2463 32.5563C45.2464 34.3334 44.8914 36.0927 44.2021 37.7306C43.5128 39.3686 42.5032 40.8524 41.2325 42.0947C40.6956 42.6223 39.973 42.9179 39.2203 42.9179C38.4677 42.9179 37.7451 42.6223 37.2082 42.0947C36.944 41.8348 36.7342 41.5248 36.591 41.183C36.4478 40.8411 36.374 40.4742 36.374 40.1035C36.374 39.7329 36.4478 39.3659 36.591 39.0241C36.7342 38.6822 36.944 38.3723 37.2082 38.1123C37.947 37.3857 38.5338 36.5193 38.9343 35.5636C39.3349 34.608 39.5412 33.5821 39.5412 32.5459C39.5412 31.5096 39.3349 30.4838 38.9343 29.5281C38.5338 28.5724 37.947 27.706 37.2082 26.9794C35.7065 25.5021 33.6843 24.6742 31.5778 24.6742C29.4712 24.6742 27.4491 25.5021 25.9474 26.9794C25.2086 27.706 24.6218 28.5724 24.2212 29.5281C23.8207 30.4838 23.6144 31.5096 23.6144 32.5459C23.6144 33.5821 23.8207 34.608 24.2212 35.5636C24.6218 36.5193 25.2086 37.3857 25.9474 38.1123C26.2116 38.3723 26.4214 38.6822 26.5646 39.0241C26.7078 39.3659 26.7816 39.7329 26.7816 40.1035C26.7816 40.4742 26.7078 40.8411 26.5646 41.183C26.4214 41.5248 26.2116 41.8348 25.9474 42.0947C25.4105 42.6223 24.6879 42.9179 23.9352 42.9179C23.1825 42.9179 22.46 42.6223 21.9231 42.0947C20.6557 40.8508 19.6495 39.3664 18.9634 37.7285C18.2774 36.0906 17.9253 34.3321 17.9277 32.5563C17.9531 28.9555 19.4052 25.5117 21.9657 22.9798ZM83.9357 19.0501C80.7531 19.0356 77.6947 20.284 75.4313 22.5215C73.168 24.759 71.8847 27.8029 71.8628 30.9854C71.8628 34.1874 73.1347 37.2581 75.3988 39.5223C77.6629 41.7864 80.7337 43.0583 83.9357 43.0583C87.1376 43.0583 90.2084 41.7864 92.4725 39.5223C94.7366 37.2581 96.0086 34.1874 96.0086 30.9854C95.9867 27.8029 94.7033 24.759 92.44 22.5215C90.1767 20.284 87.1183 19.0356 83.9357 19.0501ZM83.9357 37.2891C82.6919 37.275 81.4801 36.8932 80.4527 36.1919C79.4254 35.4906 78.6285 34.501 78.1623 33.3478C77.6962 32.1946 77.5815 30.9293 77.8329 29.7111C78.0842 28.4928 78.6904 27.3762 79.5749 26.5017C80.4595 25.6272 81.5829 25.0339 82.8039 24.7964C84.025 24.559 85.2889 24.6881 86.4367 25.1674C87.5845 25.6468 88.5649 26.4549 89.2544 27.4902C89.944 28.5254 90.3119 29.7415 90.3118 30.9854C90.3071 31.818 90.1383 32.6415 89.8153 33.4088C89.4923 34.1762 89.0214 34.8725 88.4293 35.4578C87.8372 36.0432 87.1356 36.5062 86.3646 36.8204C85.5936 37.1346 84.7683 37.2939 83.9357 37.2891ZM112.539 19.0501C108.939 19.0351 105.479 20.4485 102.919 22.9803C100.358 25.5121 98.9063 28.9558 98.881 32.5565C98.8784 34.3326 99.2305 36.0914 99.9167 37.7296C100.603 39.3678 101.609 40.8525 102.877 42.0965C103.414 42.6241 104.137 42.9196 104.889 42.9196C105.642 42.9196 106.365 42.6241 106.901 42.0965C107.166 41.8365 107.375 41.5266 107.519 41.1847C107.662 40.8429 107.736 40.4759 107.736 40.1053C107.736 39.7346 107.662 39.3677 107.519 39.0258C107.375 38.684 107.166 38.374 106.901 38.1141C106.163 37.3875 105.576 36.5212 105.176 35.5656C104.775 34.61 104.569 33.5842 104.569 32.5481C104.569 31.5119 104.775 30.4862 105.176 29.5305C105.576 28.5749 106.163 27.7086 106.901 26.982C108.403 25.5048 110.425 24.6768 112.531 24.6768C114.638 24.6768 116.66 25.5048 118.161 26.982C118.9 27.7086 119.487 28.5749 119.887 29.5305C120.288 30.4862 120.494 31.5119 120.494 32.5481C120.494 33.5842 120.288 34.61 119.887 35.5656C119.487 36.5212 118.9 37.3875 118.161 38.1141C117.897 38.374 117.687 38.6838 117.544 39.0256C117.401 39.3674 117.327 39.7343 117.327 40.1049C117.327 40.4755 117.401 40.8424 117.544 41.1841C117.687 41.5259 117.897 41.8358 118.161 42.0957C118.698 42.6233 119.421 42.9188 120.174 42.9188C120.926 42.9188 121.649 42.6233 122.186 42.0957C123.456 40.8533 124.466 39.3694 125.155 37.7313C125.845 36.0931 126.2 34.3337 126.199 32.5565C126.174 28.9556 124.722 25.5116 122.161 22.9797C119.601 20.4478 116.14 19.0347 112.539 19.0501ZM63.1575 30.9691C63.1661 32.5231 61.8989 33.7899 60.3271 33.7986C58.7553 33.8073 57.4742 32.5546 57.4656 31.0006C57.457 29.4466 58.7242 28.1798 60.296 28.1711C61.8677 28.1624 63.1489 29.4151 63.1575 30.9691Z" fill="white"/>
<path d="M142.061 28.8304H136.479V42.5275H138.92V37.6172H142.061C145.102 37.6172 146.402 35.4503 146.402 33.2238C146.402 31.0371 145.102 28.8304 142.061 28.8304ZM141.941 35.4305H138.92V30.9973H142.001C143.401 30.9973 143.961 32.1503 143.961 33.2238C143.961 34.3371 143.381 35.4305 141.941 35.4305Z" fill="white"/>
<path d="M157.081 37.7961C157.081 34.8937 154.98 33.0449 152.299 33.0449C149.638 33.0449 147.398 34.9136 147.398 37.8757C147.398 40.7781 149.518 42.7263 152.319 42.7263C154.02 42.7263 155.66 42.0106 156.52 40.6588L154.98 39.4859C154.42 40.2413 153.459 40.6389 152.439 40.6389C151.059 40.6389 150.058 39.9829 149.798 38.6907H157.021C157.061 38.3528 157.081 38.0546 157.081 37.7961ZM149.798 37.0805C150.078 35.669 151.079 35.0726 152.339 35.0726C153.64 35.0726 154.62 35.8082 154.76 37.0805H149.798Z" fill="white"/>
<path d="M160.513 31.375C161.353 31.375 162.033 30.7588 162.033 29.9636C162.033 29.1485 161.353 28.5521 160.513 28.5521C159.692 28.5521 159.012 29.1485 159.012 29.9636C159.012 30.7588 159.692 31.375 160.513 31.375ZM156.671 47.06H157.892C160.513 47.06 161.673 45.4498 161.673 42.8654V33.2437L159.352 33.2437V42.8654C159.372 43.9191 159.032 44.913 157.812 44.913H156.671V47.06Z" fill="white"/>
<path d="M168.81 42.7263C171.471 42.7263 173.791 40.798 173.791 37.8558C173.791 34.9136 171.471 33.0449 168.81 33.0449C166.149 33.0449 163.848 34.9136 163.848 37.8558C163.848 40.798 166.149 42.7263 168.81 42.7263ZM168.81 40.5793C167.369 40.5793 166.189 39.4859 166.189 37.8558C166.189 36.2654 167.369 35.1919 168.81 35.1919C170.25 35.1919 171.451 36.2654 171.451 37.8558C171.451 39.4859 170.25 40.5793 168.81 40.5793Z" fill="white"/>
<path d="M180.941 33.2437H178.96V29.8244H176.639V33.2437H174.959V35.0925H176.639V42.5275H178.96V35.0925H180.941V33.2437Z" fill="white"/>
<path d="M189.682 33.2437V34.4762C189.042 33.5021 187.741 33.0449 186.561 33.0449C184.1 33.0449 181.98 34.8937 181.98 37.8757C181.98 40.8377 184.12 42.7263 186.581 42.7263C187.721 42.7263 189.042 42.2691 189.682 41.2751V42.5275H192.003V33.2437H189.682ZM186.941 40.5594C185.501 40.5594 184.32 39.4064 184.32 37.8558C184.32 36.3052 185.501 35.1919 186.941 35.1919C188.282 35.1919 189.642 36.2257 189.642 37.8558C189.642 39.4859 188.362 40.5594 186.941 40.5594Z" fill="white"/>
<path d="M306.021 182.343C304.459 181.786 302.807 181.506 301.144 181.518C295.767 181.518 291.969 184.169 291.942 187.976C291.909 190.773 294.641 192.349 296.708 193.283C298.829 194.244 299.538 194.849 299.531 195.708C299.518 197.014 297.837 197.606 296.275 197.606C294.127 197.606 292.954 197.313 291.149 196.58L290.48 196.274L289.717 200.656C291.025 201.189 293.381 201.646 295.814 201.686C301.531 201.686 305.268 199.051 305.312 195C305.359 192.766 303.88 191.079 300.768 189.684C298.876 188.779 297.703 188.174 297.703 187.256C297.703 186.443 298.708 185.574 300.808 185.574C302.206 185.541 303.596 185.798 304.885 186.328L305.389 186.548L306.152 182.314L306.021 182.343ZM319.976 181.873H315.775C314.467 181.873 313.482 182.225 312.911 183.495L304.831 201.413H310.548L311.691 198.475L318.668 198.481C318.833 199.169 319.337 201.413 319.337 201.413H324.379L319.976 181.873ZM284.209 181.708H289.657L286.249 201.258H280.807L284.209 181.702V181.708ZM270.379 192.484L270.943 195.198L276.267 181.873H282.038L273.464 201.387H267.707L263.001 184.864C262.925 184.591 262.746 184.357 262.501 184.209C260.805 183.351 259.008 182.701 257.15 182.271L257.224 181.86H265.993C267.182 181.906 268.14 182.271 268.459 183.515L270.375 192.493V192.484H270.379ZM313.254 194.477L315.425 189.009C315.398 189.068 315.872 187.881 316.148 187.147L316.521 188.835L317.781 194.474H313.251V194.477H313.254Z" fill="white"/>
<path d="M18.4252 196.307C18.4252 195.393 18.6359 194.572 19.0572 193.846C19.4874 193.12 20.0656 192.555 20.7917 192.152C21.5267 191.74 22.329 191.534 23.1985 191.534C24.1934 191.534 25.0764 191.78 25.8473 192.273C26.6271 192.757 27.1918 193.447 27.5414 194.344H25.6994C25.4573 193.851 25.1212 193.483 24.6909 193.241C24.2607 192.999 23.7632 192.878 23.1985 192.878C22.58 192.878 22.0287 193.017 21.5446 193.295C21.0606 193.573 20.6796 193.972 20.4018 194.492C20.1328 195.012 19.9984 195.617 19.9984 196.307C19.9984 196.997 20.1328 197.602 20.4018 198.122C20.6796 198.642 21.0606 199.045 21.5446 199.332C22.0287 199.61 22.58 199.749 23.1985 199.749C23.7632 199.749 24.2607 199.628 24.6909 199.386C25.1212 199.144 25.4573 198.776 25.6994 198.283H27.5414C27.1918 199.18 26.6271 199.87 25.8473 200.354C25.0764 200.838 24.1934 201.08 23.1985 201.08C22.32 201.08 21.5177 200.878 20.7917 200.475C20.0656 200.063 19.4874 199.493 19.0572 198.767C18.6359 198.041 18.4252 197.221 18.4252 196.307ZM34.9694 199.09H31.0567L30.3844 200.999H28.7843L32.1323 191.641H33.9072L37.2551 200.999H35.6417L34.9694 199.09ZM34.5391 197.84L33.0197 193.497L31.4869 197.84H34.5391ZM43.5648 200.999L41.4134 197.261H40.2437V200.999H38.7109V191.655H41.9378C42.6549 191.655 43.26 191.78 43.753 192.031C44.255 192.282 44.627 192.618 44.869 193.04C45.12 193.461 45.2455 193.931 45.2455 194.451C45.2455 195.061 45.0662 195.617 44.7077 196.119C44.3581 196.612 43.8158 196.948 43.0807 197.127L45.3934 200.999H43.5648ZM40.2437 196.038H41.9378C42.5115 196.038 42.9418 195.894 43.2286 195.608C43.5244 195.321 43.6723 194.935 43.6723 194.451C43.6723 193.967 43.5289 193.591 43.2421 193.322C42.9552 193.044 42.5205 192.905 41.9378 192.905H40.2437V196.038ZM51.4687 201.094C50.5992 201.094 49.7969 200.892 49.0619 200.488C48.3358 200.076 47.7576 199.507 47.3274 198.781C46.9061 198.046 46.6954 197.221 46.6954 196.307C46.6954 195.393 46.9061 194.572 47.3274 193.846C47.7576 193.12 48.3358 192.555 49.0619 192.152C49.7969 191.74 50.5992 191.534 51.4687 191.534C52.3471 191.534 53.1494 191.74 53.8754 192.152C54.6105 192.555 55.1886 193.12 55.6099 193.846C56.0312 194.572 56.2419 195.393 56.2419 196.307C56.2419 197.221 56.0312 198.046 55.6099 198.781C55.1886 199.507 54.6105 200.076 53.8754 200.488C53.1494 200.892 52.3471 201.094 51.4687 201.094ZM51.4687 199.762C52.0872 199.762 52.6384 199.623 53.1225 199.346C53.6065 199.059 53.983 198.655 54.2519 198.135C54.5298 197.607 54.6687 196.997 54.6687 196.307C54.6687 195.617 54.5298 195.012 54.2519 194.492C53.983 193.972 53.6065 193.573 53.1225 193.295C52.6384 193.017 52.0872 192.878 51.4687 192.878C50.8502 192.878 50.2989 193.017 49.8148 193.295C49.3308 193.573 48.9498 193.972 48.6719 194.492C48.403 195.012 48.2686 195.617 48.2686 196.307C48.2686 196.997 48.403 197.607 48.6719 198.135C48.9498 198.655 49.3308 199.059 49.8148 199.346C50.2989 199.623 50.8502 199.762 51.4687 199.762ZM59.283 199.762H62.4428V200.999H57.7502V191.655H59.283V199.762ZM65.2575 191.655V200.999H63.7247V191.655H65.2575ZM74.9474 200.999H73.4146L68.8027 194.021V200.999H67.2699V191.641H68.8027L73.4146 198.606V191.641H74.9474V200.999ZM78.4931 192.892V195.635H81.7201V196.885H78.4931V199.749H82.1235V200.999H76.9603V191.641H82.1235V192.892H78.4931ZM93.1379 199.09H89.2252L88.5529 200.999H86.9529L90.3009 191.641H92.0757L95.4237 200.999H93.8102L93.1379 199.09ZM92.7077 197.84L91.1883 193.497L89.6555 197.84H92.7077ZM101.733 200.999L99.582 197.261H98.4122V200.999H96.8794V191.655H100.106C100.824 191.655 101.429 191.78 101.922 192.031C102.424 192.282 102.796 192.618 103.038 193.04C103.289 193.461 103.414 193.931 103.414 194.451C103.414 195.061 103.235 195.617 102.876 196.119C102.527 196.612 101.984 196.948 101.249 197.127L103.562 200.999H101.733ZM98.4122 196.038H100.106C100.68 196.038 101.11 195.894 101.397 195.608C101.693 195.321 101.841 194.935 101.841 194.451C101.841 193.967 101.697 193.591 101.411 193.322C101.124 193.044 100.689 192.905 100.106 192.905H98.4122V196.038ZM111.009 199.09H107.096L106.424 200.999H104.824L108.172 191.641L109.946 191.641L113.294 200.999L111.681 200.999L111.009 199.09ZM110.578 197.84L109.059 193.497L107.526 197.84H110.578ZM116.27 191.655V197.611C116.27 198.319 116.453 198.853 116.821 199.211C117.197 199.57 117.717 199.749 118.381 199.749C119.053 199.749 119.573 199.57 119.94 199.211C120.317 198.853 120.505 198.319 120.505 197.611V191.655H122.038V197.584C122.038 198.346 121.872 198.991 121.54 199.52C121.209 200.049 120.765 200.444 120.209 200.704C119.653 200.964 119.039 201.094 118.367 201.094C117.695 201.094 117.081 200.964 116.525 200.704C115.978 200.444 115.543 200.049 115.221 199.52C114.898 198.991 114.737 198.346 114.737 197.584V191.655H116.27ZM119.765 189.651L116.794 191.117V189.987L119.765 188.347V189.651ZM129.129 191.655V198.391C129.129 199.225 128.874 199.883 128.363 200.367C127.861 200.851 127.198 201.094 126.373 201.094C125.548 201.094 124.881 200.851 124.37 200.367C123.868 199.883 123.617 199.225 123.617 198.391H125.163C125.172 198.803 125.275 199.13 125.472 199.372C125.678 199.614 125.979 199.735 126.373 199.735C126.767 199.735 127.068 199.614 127.274 199.372C127.48 199.121 127.583 198.794 127.583 198.391V191.655H129.129ZM135.885 201.094C135.016 201.094 134.214 200.892 133.479 200.488C132.752 200.076 132.174 199.507 131.744 198.781C131.323 198.046 131.112 197.221 131.112 196.307C131.112 195.393 131.323 194.572 131.744 193.846C132.174 193.12 132.752 192.555 133.479 192.152C134.214 191.74 135.016 191.534 135.885 191.534C136.764 191.534 137.566 191.74 138.292 192.152C139.027 192.555 139.605 193.12 140.027 193.846C140.448 194.572 140.659 195.393 140.659 196.307C140.659 197.221 140.448 198.046 140.027 198.781C139.605 199.507 139.027 200.076 138.292 200.488C137.566 200.892 136.764 201.094 135.885 201.094ZM135.885 199.762C136.504 199.762 137.055 199.623 137.539 199.346C138.023 199.059 138.4 198.655 138.669 198.135C138.946 197.607 139.085 196.997 139.085 196.307C139.085 195.617 138.946 195.012 138.669 194.492C138.4 193.972 138.023 193.573 137.539 193.295C137.055 193.017 136.504 192.878 135.885 192.878C135.267 192.878 134.716 193.017 134.231 193.295C133.747 193.573 133.366 193.972 133.089 194.492C132.82 195.012 132.685 195.617 132.685 196.307C132.685 196.997 132.82 197.607 133.089 198.135C133.366 198.655 133.747 199.059 134.231 199.346C134.716 199.623 135.267 199.762 135.885 199.762Z" fill="white"/>
</g>
<defs>
<linearGradient id="paint0_linear_4330_249" x1="-144.365" y1="42.934" x2="371.486" y2="315.305" gradientUnits="userSpaceOnUse">
<stop stop-color="#00A5F0"/>
<stop offset="1" stop-color="#00D7D7"/>
</linearGradient>
<linearGradient id="paint1_linear_4330_249" x1="138.388" y1="279.655" x2="17.6692" y2="154.918" gradientUnits="userSpaceOnUse">
<stop stop-color="white"/>
<stop offset="1" stop-color="white" stop-opacity="0"/>
</linearGradient>
<linearGradient id="paint2_linear_4330_249" x1="273.651" y1="-122.874" x2="360.89" y2="88.6252" gradientUnits="userSpaceOnUse">
<stop stop-color="white"/>
<stop offset="1" stop-color="white" stop-opacity="0"/>
</linearGradient>
<linearGradient id="paint3_linear_4330_249" x1="60.4356" y1="89.6663" x2="76.5969" y2="136.43" gradientUnits="userSpaceOnUse">
<stop stop-color="#DCD59E"/>
<stop offset="1" stop-color="#CBBB82"/>
</linearGradient>
<linearGradient id="paint4_linear_4330_249" x1="40.1036" y1="91.5952" x2="60.4356" y2="123.553" gradientUnits="userSpaceOnUse">
<stop stop-color="#FBF3C0"/>
<stop offset="1" stop-color="#CCBC84"/>
</linearGradient>
<clipPath id="clip0_4330_249">
<rect width="341.746" height="218.493" rx="6.72287" fill="white"/>
</clipPath>
</defs>
</svg>
